<svg xmlns="http://www.w3.org/2000/svg" viewBox="0 0 900 520" role="img" aria-labelledby="title desc">
  <title id="title">Docking binding pose example</title>
  <desc id="desc">A stylized protein pocket with ligand binding pose.</desc>
  <rect width="900" height="520" fill="#0f172a"/>
  <circle cx="454" cy="260" r="168" fill="#1e3a8a" opacity="0.35"/>
  <path d="M252 238 C260 152 350 96 438 116 C512 132 552 186 638 178 C700 172 748 236 716 304 C690 360 626 360 574 402 C498 464 394 430 352 366 C318 314 244 314 252 238 Z" fill="#2563eb" opacity="0.45" stroke="#60a5fa" stroke-width="5"/>
  <path d="M364 282 L414 236 L478 252 L530 214 L584 246 L552 310 L486 324 L426 306 Z" fill="none" stroke="#facc15" stroke-width="13" stroke-linejoin="round" stroke-linecap="round"/>
  <circle cx="414" cy="236" r="17" fill="#f97316"/>
  <circle cx="478" cy="252" r="17" fill="#22c55e"/>
  <circle cx="530" cy="214" r="17" fill="#f97316"/>
  <circle cx="486" cy="324" r="17" fill="#22c55e"/>
  <line x1="414" y1="236" x2="360" y2="188" stroke="#93c5fd" stroke-width="4" stroke-dasharray="10 10"/>
  <line x1="530" y1="214" x2="616" y2="184" stroke="#93c5fd" stroke-width="4" stroke-dasharray="10 10"/>
  <line x1="486" y1="324" x2="562" y2="376" stroke="#93c5fd" stroke-width="4" stroke-dasharray="10 10"/>
  <text x="64" y="84" fill="#f8fafc" font-family="Arial, sans-serif" font-size="32" font-weight="700">Docking Binding Pose</text>
  <text x="64" y="118" fill="#cbd5e1" font-family="Arial, sans-serif" font-size="18">Ligand orientation and residue contact review</text>
  <text x="648" y="424" fill="#bfdbfe" font-family="Arial, sans-serif" font-size="17">Active-site pocket</text>
</svg>
