<svg xmlns="http://www.w3.org/2000/svg" viewBox="0 0 900 520" role="img" aria-labelledby="title desc">
  <title id="title">RMSF analysis plot example</title>
  <desc id="desc">A stylized residue fluctuation bar and line plot.</desc>
  <rect width="900" height="520" fill="#111827"/>
  <rect x="72" y="54" width="760" height="382" rx="24" fill="#0f172a" stroke="#334155" stroke-width="2"/>
  <text x="96" y="98" fill="#f8fafc" font-family="Arial, sans-serif" font-size="30" font-weight="700">RMSF Residue Flexibility</text>
  <text x="96" y="130" fill="#94a3b8" font-family="Arial, sans-serif" font-size="18">Flexible loops and stable core regions</text>
  <line x1="132" y1="372" x2="776" y2="372" stroke="#64748b" stroke-width="2"/>
  <line x1="132" y1="168" x2="132" y2="372" stroke="#64748b" stroke-width="2"/>
  <path d="M132 340 L166 326 L200 346 L234 296 L268 334 L302 246 L336 312 L370 330 L404 214 L438 288 L472 324 L506 306 L540 256 L574 338 L608 326 L642 198 L676 302 L710 322 L744 286 L776 318" fill="none" stroke="#f59e0b" stroke-width="7" stroke-linecap="round" stroke-linejoin="round"/>
  <path d="M132 340 L166 326 L200 346 L234 296 L268 334 L302 246 L336 312 L370 330 L404 214 L438 288 L472 324 L506 306 L540 256 L574 338 L608 326 L642 198 L676 302 L710 322 L744 286 L776 318" fill="none" stroke="#fde68a" stroke-width="3" stroke-linecap="round" stroke-linejoin="round"/>
  <text x="384" y="420" fill="#cbd5e1" font-family="Arial, sans-serif" font-size="16">Residue Number</text>
  <text x="54" y="280" fill="#cbd5e1" font-family="Arial, sans-serif" font-size="16" transform="rotate(-90 54 280)">RMSF (nm)</text>
  <circle cx="642" cy="198" r="9" fill="#fde68a"/>
</svg>
